<svg width="285" height="285" viewBox="0 0 285 285" fill="none" xmlns="http://www.w3.org/2000/svg">
<g clip-path="url(#clip0_3766_1019)">
<path d="M81.0784 285C65.5511 285.007 50.3659 280.439 37.4191 271.867C24.4723 263.295 14.3375 251.099 8.2804 236.802C2.22328 222.505 0.512219 206.74 3.36088 191.477C6.20954 176.213 13.4917 162.127 24.298 150.977L84.6267 88.6277C88.261 84.8718 92.5995 81.8686 97.3945 79.7894C102.19 77.7102 107.347 76.5958 112.573 76.5099C117.798 76.424 122.99 77.3682 127.851 79.2886C132.711 81.209 137.146 84.068 140.902 87.7023L197.324 142.29C204.899 149.636 209.251 159.687 209.425 170.237C209.599 180.788 205.581 190.976 198.253 198.568L137.924 260.917C130.713 268.389 122.097 274.362 112.571 278.493C103.045 282.624 92.7964 284.832 82.4143 284.99L81.0784 285ZM113.245 78.0934H112.593C107.572 78.1626 102.615 79.227 98.008 81.2248C93.4011 83.2226 89.2361 86.1142 85.7541 89.7323L25.4319 152.071C18.2858 159.369 12.653 168.007 8.85768 177.489C5.06234 186.972 3.17931 197.111 3.31692 207.324C3.45453 217.536 5.61007 227.621 9.65952 236.998C13.709 246.374 19.5724 254.858 26.9126 261.96C34.2527 269.062 42.9247 274.643 52.4296 278.381C61.9345 282.119 72.0848 283.942 82.2965 283.743C92.5082 283.544 102.58 281.328 111.932 277.222C121.284 273.116 129.732 267.202 136.79 259.819L197.132 197.457C204.17 190.167 208.029 180.382 207.862 170.25C207.695 160.118 203.516 150.466 196.242 143.411L139.807 88.833C132.699 81.9146 123.164 78.0539 113.245 78.0771V78.0934Z" fill="#45B9BB"/>
<path d="M114.102 209.429C103.775 209.447 93.8489 205.437 86.4318 198.252L24.0829 137.924C16.5579 130.72 10.5308 122.1 6.34804 112.56C2.16527 103.019 -0.0906961 92.7463 -0.290189 82.3311C-0.489682 71.9159 1.37123 61.5639 5.18559 51.8703C8.99995 42.1766 14.6925 33.3324 21.9361 25.846C29.1798 18.3596 37.8315 12.3786 47.3942 8.24684C56.9569 4.11506 67.2419 1.91397 77.658 1.77008C88.0741 1.6262 98.416 3.54236 108.089 7.40841C117.762 11.2745 126.576 17.0142 134.024 24.2977L196.376 84.6264C200.132 88.2607 203.135 92.5992 205.214 97.3942C207.293 102.189 208.408 107.347 208.494 112.572C208.58 117.798 207.635 122.99 205.715 127.85C203.795 132.711 200.936 137.146 197.301 140.902L142.717 197.324C139.007 201.162 134.56 204.213 129.643 206.293C124.726 208.373 119.441 209.439 114.102 209.429ZM79.0842 3.63307H77.7809C62.4514 3.87099 47.5374 8.65305 34.9279 17.3736C22.3183 26.0941 12.5805 38.3607 6.94788 52.6198C1.31522 66.8789 0.0411115 82.4889 3.28693 97.4726C6.53274 112.456 14.1525 126.14 25.181 136.79L87.5299 197.131C94.8205 204.17 104.605 208.029 114.737 207.862C124.869 207.695 134.521 203.516 141.577 196.242L196.154 139.807C199.645 136.2 202.391 131.941 204.235 127.272C206.079 122.604 206.986 117.618 206.903 112.599C206.821 107.581 205.75 102.627 203.753 98.0223C201.756 93.4172 198.872 89.2506 195.265 85.7603L132.942 25.4316C118.515 11.4345 99.1984 3.61445 79.0972 3.63307H79.0842Z" fill="#45B9BB"/>
<path d="M171.756 208.5C161.428 208.524 151.5 204.504 144.099 197.301L87.6766 142.717C80.1017 135.371 75.7498 125.32 75.5757 114.769C75.4017 104.219 79.4195 94.03 86.748 86.4381L147.077 24.0826C154.28 16.5576 162.9 10.5306 172.441 6.34778C181.981 2.16501 192.254 -0.0909555 202.669 -0.290448C213.084 -0.489941 223.436 1.37097 233.13 5.18533C242.824 8.99969 251.668 14.6923 259.154 21.9359C266.641 29.1795 272.622 37.8313 276.754 47.394C280.885 56.9566 283.086 67.2416 283.23 77.6577C283.374 88.0739 281.458 98.4157 277.592 108.089C273.726 117.762 267.986 126.576 260.703 134.023L200.39 196.376C196.764 200.142 192.427 203.153 187.63 205.233C182.833 207.313 177.671 208.421 172.443 208.493L171.756 208.5ZM145.193 196.154C148.8 199.644 153.06 202.39 157.728 204.235C162.396 206.079 167.382 206.986 172.401 206.903C177.42 206.821 182.373 205.75 186.978 203.753C191.583 201.756 195.75 198.872 199.24 195.264L259.569 132.942C273.859 118.175 281.697 98.3357 281.36 77.7893C281.023 57.2429 272.537 37.6721 257.77 23.3821C243.003 9.0921 223.164 1.25356 202.618 1.59087C182.072 1.92818 162.501 10.4137 148.211 25.1807L87.8819 87.5296C80.8446 94.8206 76.9862 104.605 77.153 114.737C77.3197 124.869 81.498 134.521 88.7714 141.576L145.193 196.154Z" fill="#45B9BB"/>
<path d="M205.929 282.944C185.415 282.968 165.7 274.989 150.977 260.702L88.6281 200.39C84.8722 196.756 81.8689 192.417 79.7897 187.622C77.7106 182.827 76.5962 177.67 76.5103 172.444C76.4243 167.218 77.3685 162.027 79.2889 157.166C81.2093 152.305 84.0683 147.87 87.7027 144.115L142.29 87.6763C149.636 80.1013 159.687 75.7495 170.237 75.5754C180.788 75.4013 190.977 79.4192 198.569 86.7476L260.918 147.076C272.168 157.943 279.94 171.904 283.25 187.191C286.56 202.478 285.26 218.403 279.513 232.95C273.766 247.497 263.832 260.012 250.967 268.91C238.103 277.807 222.888 282.687 207.249 282.931C206.803 282.941 206.36 282.944 205.929 282.944ZM170.899 77.1452C165.773 77.1364 160.698 78.1615 155.977 80.159C151.256 82.1566 146.987 85.0857 143.424 88.7711L88.8334 145.193C85.3429 148.8 82.5971 153.059 80.7527 157.728C78.9084 162.396 78.0016 167.382 78.0842 172.401C78.1668 177.419 79.2372 182.373 81.2341 186.978C83.2311 191.583 86.1156 195.749 89.7229 199.24L152.072 259.568C159.369 266.715 168.007 272.347 177.49 276.143C186.972 279.938 197.111 281.821 207.324 281.683C217.537 281.546 227.621 279.39 236.998 275.341C246.375 271.291 254.858 265.428 261.96 258.088C269.062 250.748 274.643 242.076 278.381 232.571C282.12 223.066 283.942 212.916 283.743 202.704C283.544 192.492 281.328 182.421 277.222 173.068C273.117 163.716 267.202 155.268 259.82 148.21L197.458 87.8815C190.339 80.9838 180.811 77.1324 170.899 77.1452Z" fill="#45B9BB"/>
</g>
<defs>
<clipPath id="clip0_3766_1019">
<rect width="285" height="285" fill="white"/>
</clipPath>
</defs>
</svg>
