<svg id="Camada_1" data-name="Camada 1" xmlns="http://www.w3.org/2000/svg" viewBox="0 0 563.14 121.26"><defs><style>.cls-1{fill:#298080;}</style></defs><path class="cls-1" d="M531.65,28.18a6.71,6.71,0,0,1-6.8,5.13,7,7,0,1,1,0-13.92,6.74,6.74,0,0,1,6.78,5.05l-3.9.94A2.86,2.86,0,0,0,524.85,23a3.17,3.17,0,0,0-3.22,3.35,3.15,3.15,0,0,0,3.22,3.35,3,3,0,0,0,2.95-2.36Z"/><path class="cls-1" d="M547.52,26.35c0,4.16-3.33,7-7.31,7s-7.35-2.8-7.35-7,3.32-7,7.35-7A7,7,0,0,1,547.52,26.35Zm-4,0a3.3,3.3,0,1,0-6.59,0,3.3,3.3,0,1,0,6.59,0Z"/><path class="cls-1" d="M563.14,24.86v8.06H559V25.75a2.31,2.31,0,0,0-2.25-2.59c-1.65,0-2.72,1.12-2.72,3.66v6.1h-4.19V19.78H554V21a5.4,5.4,0,0,1,4-1.65C561.1,19.39,563.14,21.56,563.14,24.86Z"/><path class="cls-1" d="M521.65,51.51a1.8,1.8,0,0,0,1.91,1.59c1,0,1.42-.52,1.42-1.1,0-.39-.21-.75-1-.94l-2.61-.6c-2.2-.5-3.56-1.68-3.56-3.82,0-2.67,2.14-4.4,5.36-4.4,3.07,0,5.16,1.52,5.63,3.77l-3.85.76a1.76,1.76,0,0,0-1.8-1.62c-.81,0-1.26.41-1.26,1s.39.87,1.1,1l2.59.63c2.31.58,3.4,2,3.4,4,0,2.91-2.38,4.43-5.68,4.43-2.72,0-5.36-1.05-5.78-3.83Z"/><path class="cls-1" d="M544.24,55.77h-4.18V54.52a5.47,5.47,0,0,1-4,1.65c-3.06,0-5.1-2.18-5.1-5.47V42.63h4.16v7.18a2.32,2.32,0,0,0,2.25,2.59c1.65,0,2.73-1.13,2.73-3.67v-6.1h4.18Z"/><path class="cls-1" d="M547.54,55.77V34.83h4.19V55.77Z"/><path class="cls-1" d="M523.56,73.63c0,1.05.55,1.65,1.5,1.65a4.23,4.23,0,0,0,1.91-.53l1,3.3a7.18,7.18,0,0,1-3.59,1c-3.12,0-5-1.86-5-5V68.81h-2.48V65.49h2.48V61l4.19-1.23v5.71h4.66v3.32h-4.66Z"/><path class="cls-1" d="M543.59,72.06a7,7,0,0,1-7.3,7c-4,0-7.36-2.8-7.36-7s3.32-7,7.36-7A7,7,0,0,1,543.59,72.06Zm-4,0a3.3,3.3,0,1,0-3.27,3.4A3.26,3.26,0,0,0,539.56,72.06Z"/><path class="cls-1" d="M528.25,88.26l-.18,4.19h-.76c-2.94,0-4.53,1.52-4.53,4.92v4.11h-4.19V88.34h4.19v2.28a5.15,5.15,0,0,1,4.53-2.46A3.52,3.52,0,0,1,528.25,88.26Z"/><path class="cls-1" d="M534.77,84.1a2.43,2.43,0,1,1-2.44-2.35A2.37,2.37,0,0,1,534.77,84.1Zm-4.53,17.38V88.34h4.19v13.14Z"/><path class="cls-1" d="M551.15,101a4.44,4.44,0,0,1-2.35.68,3.1,3.1,0,0,1-3-1.6,5.66,5.66,0,0,1-4.37,1.76c-2.8,0-4.68-1.65-4.68-4.06,0-2.65,1.91-4.06,5.42-4.32l3.22-.26v-.16a1.77,1.77,0,0,0-1.91-1.89,1.89,1.89,0,0,0-2,1.71l-3.88-.82c.6-2.61,2.78-4.13,5.94-4.13,3.54,0,5.87,1.86,5.87,5.21v4.19c0,.47.18.73.47.73l1,0ZM545.4,96.3v-.55l-2.54.29c-1.21.13-1.76.65-1.76,1.44s.66,1.25,1.63,1.25A2.48,2.48,0,0,0,545.4,96.3Z"/><path class="cls-1" d="M380.51,121.26H325.65c-34.74,0-63-26-63-58s28.26-58,63-58h54.86V13H325.65c-30.31,0-55,22.53-55,50.23s24.65,50.24,55,50.24h54.86Z"/><path class="cls-1" d="M442.79,121.26c-33.6,0-60.94-26.31-60.94-58.65v-4C381.85,26.31,409.19,0,442.79,0s60.94,26.31,60.94,58.65v4C503.73,95,476.39,121.26,442.79,121.26Zm0-113.53c-29.17,0-52.91,22.84-52.91,50.92v4c0,28.08,23.74,50.92,52.91,50.92s52.9-22.84,52.9-50.92v-4C495.69,30.57,472,7.73,442.79,7.73Z"/><path class="cls-1" d="M220.69,78.5H133.38V9.36h87.31a34.57,34.57,0,0,1,0,69.14Zm-79.27-8h79.27a26.54,26.54,0,0,0,0-53.07H141.42Z"/><path class="cls-1" d="M141.42,78.5h50.84c13.44,0,27,4.35,37.1,11.94,10.71,8,16.6,19,16.6,30.82h8c0-31.37-32.05-50.8-61.74-50.8H133.38v50.8h8Z"/><path class="cls-1" d="M8,66.4A55,55,0,0,1,118,66.4v54.86h8V66.4a63,63,0,1,0-126,0v54.86H8Z"/></svg>